<?xml version="1.0" standalone="no"?>
<!DOCTYPE svg PUBLIC "-//W3C//DTD SVG 20010904//EN"
 "http://www.w3.org/TR/2001/REC-SVG-20010904/DTD/svg10.dtd">
<svg version="1.0" xmlns="http://www.w3.org/2000/svg"
 width="140.000000pt" height="140.000000pt" viewBox="0 0 140.000000 140.000000"
 preserveAspectRatio="xMidYMid meet">
<metadata>
Created by potrace 1.14, written by Peter Selinger 2001-2017
</metadata>
<g transform="translate(0.000000,140.000000) scale(0.100000,-0.100000)"
fill="#000000" stroke="none">
<path d="M428 1030 l-138 -143 138 -145 137 -145 5 58 5 59 113 -1 112 -1 1
82 0 81 174 -180 173 -179 -65 -73 -65 -73 80 0 c66 0 85 4 113 23 63 42 69
66 69 302 0 199 -1 213 -22 255 -41 78 -49 80 -390 80 l-297 0 -3 72 -3 71
-137 -143z"/>
<path d="M189 1007 c-63 -42 -69 -66 -69 -302 0 -199 1 -213 23 -255 40 -78
48 -80 389 -80 l298 0 0 -72 0 -72 71 69 c39 39 101 104 139 145 l68 75 -139
145 -138 145 -1 -57 c0 -39 -4 -58 -12 -59 -7 -1 -59 -1 -115 -1 l-103 -1 0
-81 -1 -81 -116 120 c-64 66 -142 147 -174 180 l-58 60 36 40 c20 22 50 55 67
73 l30 32 -81 0 c-67 0 -86 -4 -114 -23z"/>
</g>
</svg>
